<svg width="304" height="179" viewBox="0 0 304 179" fill="#FFFFFF" xmlns="http://www.w3.org/2000/svg">
<path d="M98.5726 27.3466C104.563 21.2314 104.462 11.4178 98.3466 5.42744C92.2314 -0.562963 82.4178 -0.461792 76.4274 5.65341L98.5726 27.3466ZM15.5 90L4.42744 79.1534C-1.50472 85.2092 -1.47151 94.9072 4.50199 100.922L15.5 90ZM76.502 173.422C82.5341 179.496 92.3481 179.53 98.4222 173.498C104.496 167.466 104.53 157.652 98.498 151.578L76.502 173.422ZM76.4274 5.65341L4.42744 79.1534L26.5726 100.847L98.5726 27.3466L76.4274 5.65341ZM4.50199 100.922L76.502 173.422L98.498 151.578L26.498 79.0778L4.50199 100.922Z" fill="white"/>
<path d="M203.927 27.8466C197.937 21.7314 198.038 11.9178 204.153 5.92744C210.269 -0.0629628 220.082 0.0382076 226.073 6.15341L203.927 27.8466ZM287 90.5L298.073 79.6534C304.005 85.7092 303.972 95.4072 297.998 101.422L287 90.5ZM225.998 173.922C219.966 179.996 210.152 180.03 204.078 173.998C198.004 167.966 197.97 158.152 204.002 152.078L225.998 173.922ZM226.073 6.15341L298.073 79.6534L275.927 101.347L203.927 27.8466L226.073 6.15341ZM297.998 101.422L225.998 173.922L204.002 152.078L276.002 79.5778L297.998 101.422Z" fill="white"/>
</svg>
